<?xml version="1.0" encoding="UTF-8" standalone="no"?>
<!-- Created with Inkscape (http://www.inkscape.org/) -->

<svg
   xmlns:dc="http://purl.org/dc/elements/1.1/"
   xmlns:cc="http://creativecommons.org/ns#"
   xmlns:rdf="http://www.w3.org/1999/02/22-rdf-syntax-ns#"
   xmlns:svg="http://www.w3.org/2000/svg"
   xmlns="http://www.w3.org/2000/svg"
   xmlns:sodipodi="http://sodipodi.sourceforge.net/DTD/sodipodi-0.dtd"
   xmlns:inkscape="http://www.inkscape.org/namespaces/inkscape"
   width="792pt"
   height="612pt"
   id="svg3823"
   version="1.1"
   inkscape:version="0.48.5 r10040"
   sodipodi:docname="round-template-moto360.svg">
  <defs
     id="defs3825" />
  <sodipodi:namedview
     inkscape:document-units="in"
     pagecolor="#ffffff"
     bordercolor="#666666"
     borderopacity="1.0"
     inkscape:pageopacity="0.0"
     inkscape:pageshadow="2"
     inkscape:zoom="1"
     inkscape:cx="787.66779"
     inkscape:cy="392.13228"
     inkscape:current-layer="layer3"
     id="namedview3827"
     showgrid="false"
     showguides="true"
     units="in"
     inkscape:window-width="1920"
     inkscape:window-height="963"
     inkscape:window-x="212"
     inkscape:window-y="74"
     inkscape:window-maximized="0">
    <inkscape:grid
       type="xygrid"
       id="grid3832"
       empspacing="5"
       visible="true"
       enabled="true"
       snapvisiblegridlinesonly="true" />
    <sodipodi:guide
       position="-80,20"
       orientation="0,990"
       id="guide3900" />
    <sodipodi:guide
       position="960,820"
       orientation="-765,0"
       id="guide3902" />
    <sodipodi:guide
       position="-40,740"
       orientation="0,-990"
       id="guide3904" />
    <sodipodi:guide
       position="20,810"
       orientation="765,0"
       id="guide3906" />
  </sodipodi:namedview>
  <metadata
     id="metadata3829">
    <rdf:RDF>
      <cc:Work
         rdf:about="">
        <dc:format>image/svg+xml</dc:format>
        <dc:type
           rdf:resource="http://purl.org/dc/dcmitype/StillImage" />
        <dc:title></dc:title>
      </cc:Work>
    </rdf:RDF>
  </metadata>
  <g
     inkscape:groupmode="layer"
     id="layer3"
     inkscape:label="View" />
  <g
     inkscape:label="Layer 1"
     inkscape:groupmode="layer"
     id="layer1">
    <g
       id="g3427">
      <g
         transform="translate(0,-14)"
         id="g3389">
        <flowRoot
           xml:space="preserve"
           id="flowRoot3908"
           style="font-size:16px;font-style:normal;font-weight:normal;line-height:125%;letter-spacing:0px;word-spacing:0px;fill:#000000;fill-opacity:1;stroke:none;font-family:Sans"><flowRegion
             id="flowRegion3910"><rect
               id="rect3912"
               width="208"
               height="102"
               x="22"
               y="283"
               style="font-size:16px" /></flowRegion><flowPara
             id="flowPara3914">__________________________</flowPara><flowPara
             id="flowPara3922" /><flowPara
             id="flowPara3916">__________________________</flowPara><flowPara
             id="flowPara3920" /><flowPara
             id="flowPara3924">__________________________</flowPara><flowPara
             id="flowPara3918" /></flowRoot>        <flowRoot
           style="font-size:16px;font-style:normal;font-weight:normal;line-height:125%;letter-spacing:0px;word-spacing:0px;fill:#000000;fill-opacity:1;stroke:none;font-family:Sans"
           id="flowRoot3989"
           xml:space="preserve"
           transform="translate(239.21417,3.5656554)"><flowRegion
             id="flowRegion3991"><rect
               style="font-size:16px"
               y="283"
               x="22"
               height="102"
               width="208"
               id="rect3993" /></flowRegion><flowPara
             id="flowPara3995">__________________________</flowPara><flowPara
             id="flowPara3997" /><flowPara
             id="flowPara3999">__________________________</flowPara><flowPara
             id="flowPara4001" /><flowPara
             id="flowPara4003">__________________________</flowPara><flowPara
             id="flowPara4005" /></flowRoot>        <flowRoot
           xml:space="preserve"
           id="flowRoot4021"
           style="font-size:16px;font-style:normal;font-weight:normal;line-height:125%;letter-spacing:0px;word-spacing:0px;fill:#000000;fill-opacity:1;stroke:none;font-family:Sans"
           transform="translate(484.15346,1.8756258)"><flowRegion
             id="flowRegion4023"><rect
               id="rect4025"
               width="208"
               height="102"
               x="22"
               y="283"
               style="font-size:16px" /></flowRegion><flowPara
             id="flowPara4027">__________________________</flowPara><flowPara
             id="flowPara4029" /><flowPara
             id="flowPara4031">__________________________</flowPara><flowPara
             id="flowPara4033" /><flowPara
             id="flowPara4035">__________________________</flowPara><flowPara
             id="flowPara4037" /></flowRoot>        <flowRoot
           style="font-size:16px;font-style:normal;font-weight:normal;line-height:125%;letter-spacing:0px;word-spacing:0px;fill:#000000;fill-opacity:1;stroke:none;font-family:Sans"
           id="flowRoot4053"
           xml:space="preserve"
           transform="translate(725.72448,1.8756258)"><flowRegion
             id="flowRegion4055"><rect
               style="font-size:16px"
               y="283"
               x="22"
               height="102"
               width="208"
               id="rect4057" /></flowRegion><flowPara
             id="flowPara4059">__________________________</flowPara><flowPara
             id="flowPara4061" /><flowPara
             id="flowPara4063">__________________________</flowPara><flowPara
             id="flowPara4065" /><flowPara
             id="flowPara4067">__________________________</flowPara><flowPara
             id="flowPara4069" /></flowRoot>      </g>
      <g
         transform="matrix(0.5290026,0,0,0.5290026,-63.86557,-108.50025)"
         id="g3332">
        <g
           id="layer2"
           inkscape:label="View" />
        <g
           inkscape:label="Layer 1"
           id="layer1-1"
           style="display:inline">
          <g
             id="g3014">
            <rect
               transform="scale(1,-1)"
               ry="1.5"
               rx="1.2857143"
               y="-312.36218"
               x="260"
               height="60"
               width="180"
               id="rect3784-8"
               style="fill:#b3b3b3;stroke:#000000;stroke-width:1.5;stroke-miterlimit:4;stroke-opacity:1;stroke-dasharray:none" />
            <rect
               style="fill:#b3b3b3;stroke:#000000;stroke-width:1.73205078;stroke-miterlimit:4;stroke-opacity:1;stroke-dasharray:none"
               id="rect3761-8"
               width="180"
               height="80"
               x="260"
               y="-692.36218"
               rx="1.2857143"
               ry="2"
               transform="scale(1,-1)" />
            <path
               id="path2987-7"
               d="m 350,282.34375 c -104.9409,0 -190.03125,85.09026 -190.03125,190.03125 0,104.94099 85.09035,190 190.03125,190 104.9409,0 190,-85.05901 190,-190 0,-104.94099 -85.0591,-190.03125 -190,-190.03125 z m 0.0937,30 c 88.37245,0 160.03125,71.62766 160.03125,160 0,88.37234 -71.6588,160.03125 -160.03125,160.03125 -88.37245,0 -160,-71.65891 -160,-160.03125 0,-88.37234 71.62755,-160 160,-160 z"
               style="fill:#4d4d4d;fill-rule:evenodd;stroke:#000000;stroke-width:0.95006192px;stroke-linecap:butt;stroke-linejoin:miter;stroke-opacity:1"
               inkscape:connector-curvature="0" />
            <path
               inkscape:connector-curvature="0"
               id="path3763-6"
               d="m 537.97969,450.54493 20,0 0,40 -20,0 z"
               style="fill:#b3b3b3;stroke:#000000;stroke-width:1px;stroke-linecap:butt;stroke-linejoin:miter;stroke-opacity:1" />
          </g>
        </g>
      </g>
      <g
         id="g3341"
         transform="matrix(0.5290026,0,0,0.5290026,176.13443,-108.50025)">
        <g
           inkscape:label="View"
           id="g3343" />
        <g
           style="display:inline"
           id="g3345"
           inkscape:label="Layer 1">
          <g
             id="g3347">
            <rect
               style="fill:#b3b3b3;stroke:#000000;stroke-width:1.5;stroke-miterlimit:4;stroke-opacity:1;stroke-dasharray:none"
               id="rect3349"
               width="180"
               height="60"
               x="260"
               y="-312.36218"
               rx="1.2857143"
               ry="1.5"
               transform="scale(1,-1)" />
            <rect
               transform="scale(1,-1)"
               ry="2"
               rx="1.2857143"
               y="-692.36218"
               x="260"
               height="80"
               width="180"
               id="rect3351"
               style="fill:#b3b3b3;stroke:#000000;stroke-width:1.73205078;stroke-miterlimit:4;stroke-opacity:1;stroke-dasharray:none" />
            <path
               inkscape:connector-curvature="0"
               style="fill:#4d4d4d;fill-rule:evenodd;stroke:#000000;stroke-width:0.95006192px;stroke-linecap:butt;stroke-linejoin:miter;stroke-opacity:1"
               d="m 350,282.34375 c -104.9409,0 -190.03125,85.09026 -190.03125,190.03125 0,104.94099 85.09035,190 190.03125,190 104.9409,0 190,-85.05901 190,-190 0,-104.94099 -85.0591,-190.03125 -190,-190.03125 z m 0.0937,30 c 88.37245,0 160.03125,71.62766 160.03125,160 0,88.37234 -71.6588,160.03125 -160.03125,160.03125 -88.37245,0 -160,-71.65891 -160,-160.03125 0,-88.37234 71.62755,-160 160,-160 z"
               id="path3353" />
            <path
               style="fill:#b3b3b3;stroke:#000000;stroke-width:1px;stroke-linecap:butt;stroke-linejoin:miter;stroke-opacity:1"
               d="m 537.97969,450.54493 20,0 0,40 -20,0 z"
               id="path3355"
               inkscape:connector-curvature="0" />
          </g>
        </g>
      </g>
      <g
         transform="matrix(0.5290026,0,0,0.5290026,420.13443,-108.50025)"
         id="g3357">
        <g
           id="g3359"
           inkscape:label="View" />
        <g
           inkscape:label="Layer 1"
           id="g3361"
           style="display:inline">
          <g
             id="g3363">
            <rect
               transform="scale(1,-1)"
               ry="1.5"
               rx="1.2857143"
               y="-312.36218"
               x="260"
               height="60"
               width="180"
               id="rect3365"
               style="fill:#b3b3b3;stroke:#000000;stroke-width:1.5;stroke-miterlimit:4;stroke-opacity:1;stroke-dasharray:none" />
            <rect
               style="fill:#b3b3b3;stroke:#000000;stroke-width:1.73205078;stroke-miterlimit:4;stroke-opacity:1;stroke-dasharray:none"
               id="rect3367"
               width="180"
               height="80"
               x="260"
               y="-692.36218"
               rx="1.2857143"
               ry="2"
               transform="scale(1,-1)" />
            <path
               id="path3369"
               d="m 350,282.34375 c -104.9409,0 -190.03125,85.09026 -190.03125,190.03125 0,104.94099 85.09035,190 190.03125,190 104.9409,0 190,-85.05901 190,-190 0,-104.94099 -85.0591,-190.03125 -190,-190.03125 z m 0.0937,30 c 88.37245,0 160.03125,71.62766 160.03125,160 0,88.37234 -71.6588,160.03125 -160.03125,160.03125 -88.37245,0 -160,-71.65891 -160,-160.03125 0,-88.37234 71.62755,-160 160,-160 z"
               style="fill:#4d4d4d;fill-rule:evenodd;stroke:#000000;stroke-width:0.95006192px;stroke-linecap:butt;stroke-linejoin:miter;stroke-opacity:1"
               inkscape:connector-curvature="0" />
            <path
               inkscape:connector-curvature="0"
               id="path3371"
               d="m 537.97969,450.54493 20,0 0,40 -20,0 z"
               style="fill:#b3b3b3;stroke:#000000;stroke-width:1px;stroke-linecap:butt;stroke-linejoin:miter;stroke-opacity:1" />
          </g>
        </g>
      </g>
      <g
         id="g3373"
         transform="matrix(0.5290026,0,0,0.5290026,664.82729,-108.50025)">
        <g
           inkscape:label="View"
           id="g3375" />
        <g
           style="display:inline"
           id="g3377"
           inkscape:label="Layer 1">
          <g
             id="g3379">
            <rect
               style="fill:#b3b3b3;stroke:#000000;stroke-width:1.5;stroke-miterlimit:4;stroke-opacity:1;stroke-dasharray:none"
               id="rect3381"
               width="180"
               height="60"
               x="260"
               y="-312.36218"
               rx="1.2857143"
               ry="1.5"
               transform="scale(1,-1)" />
            <rect
               transform="scale(1,-1)"
               ry="2"
               rx="1.2857143"
               y="-692.36218"
               x="260"
               height="80"
               width="180"
               id="rect3383"
               style="fill:#b3b3b3;stroke:#000000;stroke-width:1.73205078;stroke-miterlimit:4;stroke-opacity:1;stroke-dasharray:none" />
            <path
               inkscape:connector-curvature="0"
               style="fill:#4d4d4d;fill-rule:evenodd;stroke:#000000;stroke-width:0.95006192px;stroke-linecap:butt;stroke-linejoin:miter;stroke-opacity:1"
               d="m 350,282.34375 c -104.9409,0 -190.03125,85.09026 -190.03125,190.03125 0,104.94099 85.09035,190 190.03125,190 104.9409,0 190,-85.05901 190,-190 0,-104.94099 -85.0591,-190.03125 -190,-190.03125 z m 0.0937,30 c 88.37245,0 160.03125,71.62766 160.03125,160 0,88.37234 -71.6588,160.03125 -160.03125,160.03125 -88.37245,0 -160,-71.65891 -160,-160.03125 0,-88.37234 71.62755,-160 160,-160 z"
               id="path3385" />
            <path
               style="fill:#b3b3b3;stroke:#000000;stroke-width:1px;stroke-linecap:butt;stroke-linejoin:miter;stroke-opacity:1"
               d="m 537.97969,450.54493 20,0 0,40 -20,0 z"
               id="path3387"
               inkscape:connector-curvature="0" />
          </g>
        </g>
      </g>
    </g>
    <g
       id="g3498"
       transform="translate(0,372)">
      <g
         id="g3500"
         transform="translate(0,-14)">
        <flowRoot
           style="font-size:16px;font-style:normal;font-weight:normal;line-height:125%;letter-spacing:0px;word-spacing:0px;fill:#000000;fill-opacity:1;stroke:none;font-family:Sans"
           id="flowRoot3502"
           xml:space="preserve"><flowRegion
             id="flowRegion3504"><rect
               style="font-size:16px"
               y="283"
               x="22"
               height="102"
               width="208"
               id="rect3506" /></flowRegion><flowPara
             id="flowPara3508">__________________________</flowPara><flowPara
             id="flowPara3510" /><flowPara
             id="flowPara3512">__________________________</flowPara><flowPara
             id="flowPara3514" /><flowPara
             id="flowPara3516">__________________________</flowPara><flowPara
             id="flowPara3518" /></flowRoot>        <flowRoot
           transform="translate(239.21417,3.5656554)"
           xml:space="preserve"
           id="flowRoot3520"
           style="font-size:16px;font-style:normal;font-weight:normal;line-height:125%;letter-spacing:0px;word-spacing:0px;fill:#000000;fill-opacity:1;stroke:none;font-family:Sans"><flowRegion
             id="flowRegion3522"><rect
               id="rect3524"
               width="208"
               height="102"
               x="22"
               y="283"
               style="font-size:16px" /></flowRegion><flowPara
             id="flowPara3526">__________________________</flowPara><flowPara
             id="flowPara3528" /><flowPara
             id="flowPara3530">__________________________</flowPara><flowPara
             id="flowPara3532" /><flowPara
             id="flowPara3534">__________________________</flowPara><flowPara
             id="flowPara3536" /></flowRoot>        <flowRoot
           transform="translate(484.15346,1.8756258)"
           style="font-size:16px;font-style:normal;font-weight:normal;line-height:125%;letter-spacing:0px;word-spacing:0px;fill:#000000;fill-opacity:1;stroke:none;font-family:Sans"
           id="flowRoot3538"
           xml:space="preserve"><flowRegion
             id="flowRegion3540"><rect
               style="font-size:16px"
               y="283"
               x="22"
               height="102"
               width="208"
               id="rect3542" /></flowRegion><flowPara
             id="flowPara3544">__________________________</flowPara><flowPara
             id="flowPara3546" /><flowPara
             id="flowPara3548">__________________________</flowPara><flowPara
             id="flowPara3550" /><flowPara
             id="flowPara3552">__________________________</flowPara><flowPara
             id="flowPara3554" /></flowRoot>        <flowRoot
           transform="translate(725.72448,1.8756258)"
           xml:space="preserve"
           id="flowRoot3556"
           style="font-size:16px;font-style:normal;font-weight:normal;line-height:125%;letter-spacing:0px;word-spacing:0px;fill:#000000;fill-opacity:1;stroke:none;font-family:Sans"><flowRegion
             id="flowRegion3558"><rect
               id="rect3560"
               width="208"
               height="102"
               x="22"
               y="283"
               style="font-size:16px" /></flowRegion><flowPara
             id="flowPara3562">__________________________</flowPara><flowPara
             id="flowPara3564" /><flowPara
             id="flowPara3566">__________________________</flowPara><flowPara
             id="flowPara3568" /><flowPara
             id="flowPara3570">__________________________</flowPara><flowPara
             id="flowPara3572" /></flowRoot>      </g>
      <g
         id="g3574"
         transform="matrix(0.5290026,0,0,0.5290026,-63.86557,-108.50025)">
        <g
           inkscape:label="View"
           id="g3576" />
        <g
           style="display:inline"
           id="g3578"
           inkscape:label="Layer 1">
          <g
             id="g3580">
            <rect
               style="fill:#b3b3b3;stroke:#000000;stroke-width:1.5;stroke-miterlimit:4;stroke-opacity:1;stroke-dasharray:none"
               id="rect3582"
               width="180"
               height="60"
               x="260"
               y="-312.36218"
               rx="1.2857143"
               ry="1.5"
               transform="scale(1,-1)" />
            <rect
               transform="scale(1,-1)"
               ry="2"
               rx="1.2857143"
               y="-692.36218"
               x="260"
               height="80"
               width="180"
               id="rect3584"
               style="fill:#b3b3b3;stroke:#000000;stroke-width:1.73205078;stroke-miterlimit:4;stroke-opacity:1;stroke-dasharray:none" />
            <path
               inkscape:connector-curvature="0"
               style="fill:#4d4d4d;fill-rule:evenodd;stroke:#000000;stroke-width:0.95006192px;stroke-linecap:butt;stroke-linejoin:miter;stroke-opacity:1"
               d="m 350,282.34375 c -104.9409,0 -190.03125,85.09026 -190.03125,190.03125 0,104.94099 85.09035,190 190.03125,190 104.9409,0 190,-85.05901 190,-190 0,-104.94099 -85.0591,-190.03125 -190,-190.03125 z m 0.0937,30 c 88.37245,0 160.03125,71.62766 160.03125,160 0,88.37234 -71.6588,160.03125 -160.03125,160.03125 -88.37245,0 -160,-71.65891 -160,-160.03125 0,-88.37234 71.62755,-160 160,-160 z"
               id="path3586" />
            <path
               style="fill:#b3b3b3;stroke:#000000;stroke-width:1px;stroke-linecap:butt;stroke-linejoin:miter;stroke-opacity:1"
               d="m 537.97969,450.54493 20,0 0,40 -20,0 z"
               id="path3588"
               inkscape:connector-curvature="0" />
          </g>
        </g>
      </g>
      <g
         transform="matrix(0.5290026,0,0,0.5290026,176.13443,-108.50025)"
         id="g3590">
        <g
           id="g3592"
           inkscape:label="View" />
        <g
           inkscape:label="Layer 1"
           id="g3594"
           style="display:inline">
          <g
             id="g3596">
            <rect
               transform="scale(1,-1)"
               ry="1.5"
               rx="1.2857143"
               y="-312.36218"
               x="260"
               height="60"
               width="180"
               id="rect3598"
               style="fill:#b3b3b3;stroke:#000000;stroke-width:1.5;stroke-miterlimit:4;stroke-opacity:1;stroke-dasharray:none" />
            <rect
               style="fill:#b3b3b3;stroke:#000000;stroke-width:1.73205078;stroke-miterlimit:4;stroke-opacity:1;stroke-dasharray:none"
               id="rect3600"
               width="180"
               height="80"
               x="260"
               y="-692.36218"
               rx="1.2857143"
               ry="2"
               transform="scale(1,-1)" />
            <path
               id="path3602"
               d="m 350,282.34375 c -104.9409,0 -190.03125,85.09026 -190.03125,190.03125 0,104.94099 85.09035,190 190.03125,190 104.9409,0 190,-85.05901 190,-190 0,-104.94099 -85.0591,-190.03125 -190,-190.03125 z m 0.0937,30 c 88.37245,0 160.03125,71.62766 160.03125,160 0,88.37234 -71.6588,160.03125 -160.03125,160.03125 -88.37245,0 -160,-71.65891 -160,-160.03125 0,-88.37234 71.62755,-160 160,-160 z"
               style="fill:#4d4d4d;fill-rule:evenodd;stroke:#000000;stroke-width:0.95006192px;stroke-linecap:butt;stroke-linejoin:miter;stroke-opacity:1"
               inkscape:connector-curvature="0" />
            <path
               inkscape:connector-curvature="0"
               id="path3604"
               d="m 537.97969,450.54493 20,0 0,40 -20,0 z"
               style="fill:#b3b3b3;stroke:#000000;stroke-width:1px;stroke-linecap:butt;stroke-linejoin:miter;stroke-opacity:1" />
          </g>
        </g>
      </g>
      <g
         id="g3606"
         transform="matrix(0.5290026,0,0,0.5290026,420.13443,-108.50025)">
        <g
           inkscape:label="View"
           id="g3608" />
        <g
           style="display:inline"
           id="g3610"
           inkscape:label="Layer 1">
          <g
             id="g3612">
            <rect
               style="fill:#b3b3b3;stroke:#000000;stroke-width:1.5;stroke-miterlimit:4;stroke-opacity:1;stroke-dasharray:none"
               id="rect3614"
               width="180"
               height="60"
               x="260"
               y="-312.36218"
               rx="1.2857143"
               ry="1.5"
               transform="scale(1,-1)" />
            <rect
               transform="scale(1,-1)"
               ry="2"
               rx="1.2857143"
               y="-692.36218"
               x="260"
               height="80"
               width="180"
               id="rect3616"
               style="fill:#b3b3b3;stroke:#000000;stroke-width:1.73205078;stroke-miterlimit:4;stroke-opacity:1;stroke-dasharray:none" />
            <path
               inkscape:connector-curvature="0"
               style="fill:#4d4d4d;fill-rule:evenodd;stroke:#000000;stroke-width:0.95006192px;stroke-linecap:butt;stroke-linejoin:miter;stroke-opacity:1"
               d="m 350,282.34375 c -104.9409,0 -190.03125,85.09026 -190.03125,190.03125 0,104.94099 85.09035,190 190.03125,190 104.9409,0 190,-85.05901 190,-190 0,-104.94099 -85.0591,-190.03125 -190,-190.03125 z m 0.0937,30 c 88.37245,0 160.03125,71.62766 160.03125,160 0,88.37234 -71.6588,160.03125 -160.03125,160.03125 -88.37245,0 -160,-71.65891 -160,-160.03125 0,-88.37234 71.62755,-160 160,-160 z"
               id="path3618" />
            <path
               style="fill:#b3b3b3;stroke:#000000;stroke-width:1px;stroke-linecap:butt;stroke-linejoin:miter;stroke-opacity:1"
               d="m 537.97969,450.54493 20,0 0,40 -20,0 z"
               id="path3620"
               inkscape:connector-curvature="0" />
          </g>
        </g>
      </g>
      <g
         transform="matrix(0.5290026,0,0,0.5290026,664.82729,-108.50025)"
         id="g3622">
        <g
           id="g3624"
           inkscape:label="View" />
        <g
           inkscape:label="Layer 1"
           id="g3626"
           style="display:inline">
          <g
             id="g3628">
            <rect
               transform="scale(1,-1)"
               ry="1.5"
               rx="1.2857143"
               y="-312.36218"
               x="260"
               height="60"
               width="180"
               id="rect3630"
               style="fill:#b3b3b3;stroke:#000000;stroke-width:1.5;stroke-miterlimit:4;stroke-opacity:1;stroke-dasharray:none" />
            <rect
               style="fill:#b3b3b3;stroke:#000000;stroke-width:1.73205078;stroke-miterlimit:4;stroke-opacity:1;stroke-dasharray:none"
               id="rect3632"
               width="180"
               height="80"
               x="260"
               y="-692.36218"
               rx="1.2857143"
               ry="2"
               transform="scale(1,-1)" />
            <path
               id="path3634"
               d="m 350,282.34375 c -104.9409,0 -190.03125,85.09026 -190.03125,190.03125 0,104.94099 85.09035,190 190.03125,190 104.9409,0 190,-85.05901 190,-190 0,-104.94099 -85.0591,-190.03125 -190,-190.03125 z m 0.0937,30 c 88.37245,0 160.03125,71.62766 160.03125,160 0,88.37234 -71.6588,160.03125 -160.03125,160.03125 -88.37245,0 -160,-71.65891 -160,-160.03125 0,-88.37234 71.62755,-160 160,-160 z"
               style="fill:#4d4d4d;fill-rule:evenodd;stroke:#000000;stroke-width:0.95006192px;stroke-linecap:butt;stroke-linejoin:miter;stroke-opacity:1"
               inkscape:connector-curvature="0" />
            <path
               inkscape:connector-curvature="0"
               id="path3636"
               d="m 537.97969,450.54493 20,0 0,40 -20,0 z"
               style="fill:#b3b3b3;stroke:#000000;stroke-width:1px;stroke-linecap:butt;stroke-linejoin:miter;stroke-opacity:1" />
          </g>
        </g>
      </g>
    </g>
  </g>
</svg>
