<?xml version="1.0" encoding="UTF-8" standalone="no"?>
<!-- Created with Inkscape (http://www.inkscape.org/) -->

<svg
   xmlns:dc="http://purl.org/dc/elements/1.1/"
   xmlns:cc="http://creativecommons.org/ns#"
   xmlns:rdf="http://www.w3.org/1999/02/22-rdf-syntax-ns#"
   xmlns:svg="http://www.w3.org/2000/svg"
   xmlns="http://www.w3.org/2000/svg"
   xmlns:sodipodi="http://sodipodi.sourceforge.net/DTD/sodipodi-0.dtd"
   xmlns:inkscape="http://www.inkscape.org/namespaces/inkscape"
   width="792pt"
   height="612pt"
   id="svg3823"
   version="1.1"
   inkscape:version="0.48.5 r10040"
   sodipodi:docname="round-template.svg">
  <defs
     id="defs3825" />
  <sodipodi:namedview
     inkscape:document-units="in"
     pagecolor="#ffffff"
     bordercolor="#666666"
     borderopacity="1.0"
     inkscape:pageopacity="0.0"
     inkscape:pageshadow="2"
     inkscape:zoom="1"
     inkscape:cx="787.66779"
     inkscape:cy="432.13228"
     inkscape:current-layer="layer1"
     id="namedview3827"
     showgrid="false"
     showguides="true"
     units="in"
     inkscape:window-width="1920"
     inkscape:window-height="963"
     inkscape:window-x="63"
     inkscape:window-y="248"
     inkscape:window-maximized="0">
    <inkscape:grid
       type="xygrid"
       id="grid3832"
       empspacing="5"
       visible="true"
       enabled="true"
       snapvisiblegridlinesonly="true" />
    <sodipodi:guide
       position="-80,20"
       orientation="0,990"
       id="guide3900" />
    <sodipodi:guide
       position="960,820"
       orientation="-765,0"
       id="guide3902" />
    <sodipodi:guide
       position="-40,740"
       orientation="0,-990"
       id="guide3904" />
    <sodipodi:guide
       position="20,810"
       orientation="765,0"
       id="guide3906" />
  </sodipodi:namedview>
  <metadata
     id="metadata3829">
    <rdf:RDF>
      <cc:Work
         rdf:about="">
        <dc:format>image/svg+xml</dc:format>
        <dc:type
           rdf:resource="http://purl.org/dc/dcmitype/StillImage" />
      </cc:Work>
    </rdf:RDF>
  </metadata>
  <g
     inkscape:label="Layer 1"
     inkscape:groupmode="layer"
     id="layer1">
    <g
       id="g4071">
      <g
         id="g3958">
        <g
           id="layer1-2"
           inkscape:label="Layer 1"
           transform="matrix(0.53611764,0,0,0.53611764,-67.634575,-110.11074)">
          <rect
             transform="scale(1,-1)"
             ry="2"
             rx="1.2857143"
             y="-332.36218"
             x="260"
             height="80"
             width="180"
             id="rect3784"
             style="fill:#b3b3b3;stroke:#000000;stroke-width:1.73205078;stroke-miterlimit:4;stroke-opacity:1;stroke-dasharray:none" />
          <rect
             style="fill:#b3b3b3;stroke:#000000;stroke-width:1.73205078;stroke-miterlimit:4;stroke-opacity:1;stroke-dasharray:none"
             id="rect3761"
             width="180"
             height="80"
             x="260"
             y="-692.36218"
             rx="1.2857143"
             ry="2"
             transform="scale(1,-1)" />
          <path
             transform="matrix(0.95006154,0,0,0.95006235,7.9655376,42.589904)"
             d="m 560,452.36218 c 0,110.45695 -89.54305,200 -200,200 -110.45695,0 -200,-89.54305 -200,-200 0,-110.45695 89.54305,-200 200,-200 110.45695,0 200,89.54305 200,200 z"
             sodipodi:ry="200"
             sodipodi:rx="200"
             sodipodi:cy="452.36218"
             sodipodi:cx="360"
             id="path2987"
             style="fill:#4d4d4d;fill-rule:evenodd;stroke:#000000;stroke-width:1px;stroke-linecap:butt;stroke-linejoin:miter;stroke-opacity:1"
             sodipodi:type="arc" />
          <path
             transform="matrix(0.80006235,0,0,0.8000614,62.079079,110.43238)"
             sodipodi:type="arc"
             style="fill:#ffffff;fill-rule:evenodd;stroke:#000000;stroke-width:1px;stroke-linecap:butt;stroke-linejoin:miter;stroke-opacity:1"
             id="path3757"
             sodipodi:cx="360"
             sodipodi:cy="452.36218"
             sodipodi:rx="200"
             sodipodi:ry="200"
             d="m 560,452.36218 c 0,110.45695 -89.54305,200 -200,200 -110.45695,0 -200,-89.54305 -200,-200 0,-110.45695 89.54305,-200 200,-200 110.45695,0 200,89.54305 200,200 z" />
          <path
             inkscape:connector-curvature="0"
             id="path3763"
             d="m 537.97969,450.54493 20,0 0,40 -20,0 z"
             style="fill:#b3b3b3;stroke:#000000;stroke-width:1px;stroke-linecap:butt;stroke-linejoin:miter;stroke-opacity:1" />
        </g>
        <flowRoot
           xml:space="preserve"
           id="flowRoot3908"
           style="font-size:16px;font-style:normal;font-weight:normal;line-height:125%;letter-spacing:0px;word-spacing:0px;fill:#000000;fill-opacity:1;stroke:none;font-family:Sans"><flowRegion
             id="flowRegion3910"><rect
               id="rect3912"
               width="208"
               height="102"
               x="22"
               y="283"
               style="font-size:16px" /></flowRegion><flowPara
             id="flowPara3914">__________________________</flowPara><flowPara
             id="flowPara3922" /><flowPara
             id="flowPara3916">__________________________</flowPara><flowPara
             id="flowPara3920"></flowPara><flowPara
             id="flowPara3924">__________________________</flowPara><flowPara
             id="flowPara3918" /></flowRoot>      </g>
      <g
         transform="translate(239.21417,3.5656554)"
         id="g3975">
        <g
           transform="matrix(0.53611764,0,0,0.53611764,-67.634575,-110.11074)"
           inkscape:label="Layer 1"
           id="g3977">
          <rect
             style="fill:#b3b3b3;stroke:#000000;stroke-width:1.73205078;stroke-miterlimit:4;stroke-opacity:1;stroke-dasharray:none"
             id="rect3979"
             width="180"
             height="80"
             x="260"
             y="-332.36218"
             rx="1.2857143"
             ry="2"
             transform="scale(1,-1)" />
          <rect
             transform="scale(1,-1)"
             ry="2"
             rx="1.2857143"
             y="-692.36218"
             x="260"
             height="80"
             width="180"
             id="rect3981"
             style="fill:#b3b3b3;stroke:#000000;stroke-width:1.73205078;stroke-miterlimit:4;stroke-opacity:1;stroke-dasharray:none" />
          <path
             sodipodi:type="arc"
             style="fill:#4d4d4d;fill-rule:evenodd;stroke:#000000;stroke-width:1px;stroke-linecap:butt;stroke-linejoin:miter;stroke-opacity:1"
             id="path3983"
             sodipodi:cx="360"
             sodipodi:cy="452.36218"
             sodipodi:rx="200"
             sodipodi:ry="200"
             d="m 560,452.36218 c 0,110.45695 -89.54305,200 -200,200 -110.45695,0 -200,-89.54305 -200,-200 0,-110.45695 89.54305,-200 200,-200 110.45695,0 200,89.54305 200,200 z"
             transform="matrix(0.95006154,0,0,0.95006235,7.9655376,42.589904)" />
          <path
             d="m 560,452.36218 c 0,110.45695 -89.54305,200 -200,200 -110.45695,0 -200,-89.54305 -200,-200 0,-110.45695 89.54305,-200 200,-200 110.45695,0 200,89.54305 200,200 z"
             sodipodi:ry="200"
             sodipodi:rx="200"
             sodipodi:cy="452.36218"
             sodipodi:cx="360"
             id="path3985"
             style="fill:#ffffff;fill-rule:evenodd;stroke:#000000;stroke-width:1px;stroke-linecap:butt;stroke-linejoin:miter;stroke-opacity:1"
             sodipodi:type="arc"
             transform="matrix(0.80006235,0,0,0.8000614,62.079079,110.43238)" />
          <path
             style="fill:#b3b3b3;stroke:#000000;stroke-width:1px;stroke-linecap:butt;stroke-linejoin:miter;stroke-opacity:1"
             d="m 537.97969,450.54493 20,0 0,40 -20,0 z"
             id="path3987"
             inkscape:connector-curvature="0" />
        </g>
        <flowRoot
           style="font-size:16px;font-style:normal;font-weight:normal;line-height:125%;letter-spacing:0px;word-spacing:0px;fill:#000000;fill-opacity:1;stroke:none;font-family:Sans"
           id="flowRoot3989"
           xml:space="preserve"><flowRegion
             id="flowRegion3991"><rect
               style="font-size:16px"
               y="283"
               x="22"
               height="102"
               width="208"
               id="rect3993" /></flowRegion><flowPara
             id="flowPara3995">__________________________</flowPara><flowPara
             id="flowPara3997" /><flowPara
             id="flowPara3999">__________________________</flowPara><flowPara
             id="flowPara4001"></flowPara><flowPara
             id="flowPara4003">__________________________</flowPara><flowPara
             id="flowPara4005" /></flowRoot>      </g>
      <g
         id="g4007"
         transform="translate(484.15346,1.8756258)">
        <g
           id="g4009"
           inkscape:label="Layer 1"
           transform="matrix(0.53611764,0,0,0.53611764,-67.634575,-110.11074)">
          <rect
             transform="scale(1,-1)"
             ry="2"
             rx="1.2857143"
             y="-332.36218"
             x="260"
             height="80"
             width="180"
             id="rect4011"
             style="fill:#b3b3b3;stroke:#000000;stroke-width:1.73205078;stroke-miterlimit:4;stroke-opacity:1;stroke-dasharray:none" />
          <rect
             style="fill:#b3b3b3;stroke:#000000;stroke-width:1.73205078;stroke-miterlimit:4;stroke-opacity:1;stroke-dasharray:none"
             id="rect4013"
             width="180"
             height="80"
             x="260"
             y="-692.36218"
             rx="1.2857143"
             ry="2"
             transform="scale(1,-1)" />
          <path
             transform="matrix(0.95006154,0,0,0.95006235,7.9655376,42.589904)"
             d="m 560,452.36218 c 0,110.45695 -89.54305,200 -200,200 -110.45695,0 -200,-89.54305 -200,-200 0,-110.45695 89.54305,-200 200,-200 110.45695,0 200,89.54305 200,200 z"
             sodipodi:ry="200"
             sodipodi:rx="200"
             sodipodi:cy="452.36218"
             sodipodi:cx="360"
             id="path4015"
             style="fill:#4d4d4d;fill-rule:evenodd;stroke:#000000;stroke-width:1px;stroke-linecap:butt;stroke-linejoin:miter;stroke-opacity:1"
             sodipodi:type="arc" />
          <path
             transform="matrix(0.80006235,0,0,0.8000614,62.079079,110.43238)"
             sodipodi:type="arc"
             style="fill:#ffffff;fill-rule:evenodd;stroke:#000000;stroke-width:1px;stroke-linecap:butt;stroke-linejoin:miter;stroke-opacity:1"
             id="path4017"
             sodipodi:cx="360"
             sodipodi:cy="452.36218"
             sodipodi:rx="200"
             sodipodi:ry="200"
             d="m 560,452.36218 c 0,110.45695 -89.54305,200 -200,200 -110.45695,0 -200,-89.54305 -200,-200 0,-110.45695 89.54305,-200 200,-200 110.45695,0 200,89.54305 200,200 z" />
          <path
             inkscape:connector-curvature="0"
             id="path4019"
             d="m 537.97969,450.54493 20,0 0,40 -20,0 z"
             style="fill:#b3b3b3;stroke:#000000;stroke-width:1px;stroke-linecap:butt;stroke-linejoin:miter;stroke-opacity:1" />
        </g>
        <flowRoot
           xml:space="preserve"
           id="flowRoot4021"
           style="font-size:16px;font-style:normal;font-weight:normal;line-height:125%;letter-spacing:0px;word-spacing:0px;fill:#000000;fill-opacity:1;stroke:none;font-family:Sans"><flowRegion
             id="flowRegion4023"><rect
               id="rect4025"
               width="208"
               height="102"
               x="22"
               y="283"
               style="font-size:16px" /></flowRegion><flowPara
             id="flowPara4027">__________________________</flowPara><flowPara
             id="flowPara4029" /><flowPara
             id="flowPara4031">__________________________</flowPara><flowPara
             id="flowPara4033"></flowPara><flowPara
             id="flowPara4035">__________________________</flowPara><flowPara
             id="flowPara4037" /></flowRoot>      </g>
      <g
         transform="translate(725.72448,1.8756258)"
         id="g4039">
        <g
           transform="matrix(0.53611764,0,0,0.53611764,-67.634575,-110.11074)"
           inkscape:label="Layer 1"
           id="g4041">
          <rect
             style="fill:#b3b3b3;stroke:#000000;stroke-width:1.73205078;stroke-miterlimit:4;stroke-opacity:1;stroke-dasharray:none"
             id="rect4043"
             width="180"
             height="80"
             x="260"
             y="-332.36218"
             rx="1.2857143"
             ry="2"
             transform="scale(1,-1)" />
          <rect
             transform="scale(1,-1)"
             ry="2"
             rx="1.2857143"
             y="-692.36218"
             x="260"
             height="80"
             width="180"
             id="rect4045"
             style="fill:#b3b3b3;stroke:#000000;stroke-width:1.73205078;stroke-miterlimit:4;stroke-opacity:1;stroke-dasharray:none" />
          <path
             sodipodi:type="arc"
             style="fill:#4d4d4d;fill-rule:evenodd;stroke:#000000;stroke-width:1px;stroke-linecap:butt;stroke-linejoin:miter;stroke-opacity:1"
             id="path4047"
             sodipodi:cx="360"
             sodipodi:cy="452.36218"
             sodipodi:rx="200"
             sodipodi:ry="200"
             d="m 560,452.36218 c 0,110.45695 -89.54305,200 -200,200 -110.45695,0 -200,-89.54305 -200,-200 0,-110.45695 89.54305,-200 200,-200 110.45695,0 200,89.54305 200,200 z"
             transform="matrix(0.95006154,0,0,0.95006235,7.9655376,42.589904)" />
          <path
             d="m 560,452.36218 c 0,110.45695 -89.54305,200 -200,200 -110.45695,0 -200,-89.54305 -200,-200 0,-110.45695 89.54305,-200 200,-200 110.45695,0 200,89.54305 200,200 z"
             sodipodi:ry="200"
             sodipodi:rx="200"
             sodipodi:cy="452.36218"
             sodipodi:cx="360"
             id="path4049"
             style="fill:#ffffff;fill-rule:evenodd;stroke:#000000;stroke-width:1px;stroke-linecap:butt;stroke-linejoin:miter;stroke-opacity:1"
             sodipodi:type="arc"
             transform="matrix(0.80006235,0,0,0.8000614,62.079079,110.43238)" />
          <path
             style="fill:#b3b3b3;stroke:#000000;stroke-width:1px;stroke-linecap:butt;stroke-linejoin:miter;stroke-opacity:1"
             d="m 537.97969,450.54493 20,0 0,40 -20,0 z"
             id="path4051"
             inkscape:connector-curvature="0" />
        </g>
        <flowRoot
           style="font-size:16px;font-style:normal;font-weight:normal;line-height:125%;letter-spacing:0px;word-spacing:0px;fill:#000000;fill-opacity:1;stroke:none;font-family:Sans"
           id="flowRoot4053"
           xml:space="preserve"><flowRegion
             id="flowRegion4055"><rect
               style="font-size:16px"
               y="283"
               x="22"
               height="102"
               width="208"
               id="rect4057" /></flowRegion><flowPara
             id="flowPara4059">__________________________</flowPara><flowPara
             id="flowPara4061" /><flowPara
             id="flowPara4063">__________________________</flowPara><flowPara
             id="flowPara4065"></flowPara><flowPara
             id="flowPara4067">__________________________</flowPara><flowPara
             id="flowPara4069" /></flowRoot>      </g>
    </g>
    <g
       id="g4363">
      <g
         id="g4346">
        <g
           transform="matrix(0.53611764,0,0,0.53611764,-65.765625,249.55029)"
           inkscape:label="Layer 1"
           id="g4141">
          <rect
             style="fill:#b3b3b3;stroke:#000000;stroke-width:1.73205078;stroke-miterlimit:4;stroke-opacity:1;stroke-dasharray:none"
             id="rect4143"
             width="180"
             height="80"
             x="260"
             y="-332.36218"
             rx="1.2857143"
             ry="2"
             transform="scale(1,-1)" />
          <rect
             transform="scale(1,-1)"
             ry="2"
             rx="1.2857143"
             y="-692.36218"
             x="260"
             height="80"
             width="180"
             id="rect4145"
             style="fill:#b3b3b3;stroke:#000000;stroke-width:1.73205078;stroke-miterlimit:4;stroke-opacity:1;stroke-dasharray:none" />
          <path
             sodipodi:type="arc"
             style="fill:#4d4d4d;fill-rule:evenodd;stroke:#000000;stroke-width:1px;stroke-linecap:butt;stroke-linejoin:miter;stroke-opacity:1"
             id="path4147"
             sodipodi:cx="360"
             sodipodi:cy="452.36218"
             sodipodi:rx="200"
             sodipodi:ry="200"
             d="m 560,452.36218 c 0,110.45695 -89.54305,200 -200,200 -110.45695,0 -200,-89.54305 -200,-200 0,-110.45695 89.54305,-200 200,-200 110.45695,0 200,89.54305 200,200 z"
             transform="matrix(0.95006154,0,0,0.95006235,7.9655376,42.589904)" />
          <path
             d="m 560,452.36218 c 0,110.45695 -89.54305,200 -200,200 -110.45695,0 -200,-89.54305 -200,-200 0,-110.45695 89.54305,-200 200,-200 110.45695,0 200,89.54305 200,200 z"
             sodipodi:ry="200"
             sodipodi:rx="200"
             sodipodi:cy="452.36218"
             sodipodi:cx="360"
             id="path4149"
             style="fill:#ffffff;fill-rule:evenodd;stroke:#000000;stroke-width:1px;stroke-linecap:butt;stroke-linejoin:miter;stroke-opacity:1"
             sodipodi:type="arc"
             transform="matrix(0.80006235,0,0,0.8000614,62.079079,110.43238)" />
          <path
             style="fill:#b3b3b3;stroke:#000000;stroke-width:1px;stroke-linecap:butt;stroke-linejoin:miter;stroke-opacity:1"
             d="m 537.97969,450.54493 20,0 0,40 -20,0 z"
             id="path4151"
             inkscape:connector-curvature="0" />
        </g>
        <flowRoot
           style="font-size:16px;font-style:normal;font-weight:normal;line-height:125%;letter-spacing:0px;word-spacing:0px;fill:#000000;fill-opacity:1;stroke:none;font-family:Sans"
           id="flowRoot4153"
           xml:space="preserve"
           transform="translate(1.8689497,359.66103)"><flowRegion
             id="flowRegion4155"><rect
               style="font-size:16px"
               y="283"
               x="22"
               height="102"
               width="208"
               id="rect4157" /></flowRegion><flowPara
             id="flowPara4159">__________________________</flowPara><flowPara
             id="flowPara4161" /><flowPara
             id="flowPara4163">__________________________</flowPara><flowPara
             id="flowPara4165"></flowPara><flowPara
             id="flowPara4167">__________________________</flowPara><flowPara
             id="flowPara4169" /></flowRoot>      </g>
      <g
         id="g4171"
         transform="translate(241.08312,363.22669)">
        <g
           id="g4173"
           inkscape:label="Layer 1"
           transform="matrix(0.53611764,0,0,0.53611764,-67.634575,-110.11074)">
          <rect
             transform="scale(1,-1)"
             ry="2"
             rx="1.2857143"
             y="-332.36218"
             x="260"
             height="80"
             width="180"
             id="rect4175"
             style="fill:#b3b3b3;stroke:#000000;stroke-width:1.73205078;stroke-miterlimit:4;stroke-opacity:1;stroke-dasharray:none" />
          <rect
             style="fill:#b3b3b3;stroke:#000000;stroke-width:1.73205078;stroke-miterlimit:4;stroke-opacity:1;stroke-dasharray:none"
             id="rect4177"
             width="180"
             height="80"
             x="260"
             y="-692.36218"
             rx="1.2857143"
             ry="2"
             transform="scale(1,-1)" />
          <path
             transform="matrix(0.95006154,0,0,0.95006235,7.9655376,42.589904)"
             d="m 560,452.36218 c 0,110.45695 -89.54305,200 -200,200 -110.45695,0 -200,-89.54305 -200,-200 0,-110.45695 89.54305,-200 200,-200 110.45695,0 200,89.54305 200,200 z"
             sodipodi:ry="200"
             sodipodi:rx="200"
             sodipodi:cy="452.36218"
             sodipodi:cx="360"
             id="path4179"
             style="fill:#4d4d4d;fill-rule:evenodd;stroke:#000000;stroke-width:1px;stroke-linecap:butt;stroke-linejoin:miter;stroke-opacity:1"
             sodipodi:type="arc" />
          <path
             transform="matrix(0.80006235,0,0,0.8000614,62.079079,110.43238)"
             sodipodi:type="arc"
             style="fill:#ffffff;fill-rule:evenodd;stroke:#000000;stroke-width:1px;stroke-linecap:butt;stroke-linejoin:miter;stroke-opacity:1"
             id="path4181"
             sodipodi:cx="360"
             sodipodi:cy="452.36218"
             sodipodi:rx="200"
             sodipodi:ry="200"
             d="m 560,452.36218 c 0,110.45695 -89.54305,200 -200,200 -110.45695,0 -200,-89.54305 -200,-200 0,-110.45695 89.54305,-200 200,-200 110.45695,0 200,89.54305 200,200 z" />
          <path
             inkscape:connector-curvature="0"
             id="path4183"
             d="m 537.97969,450.54493 20,0 0,40 -20,0 z"
             style="fill:#b3b3b3;stroke:#000000;stroke-width:1px;stroke-linecap:butt;stroke-linejoin:miter;stroke-opacity:1" />
        </g>
        <flowRoot
           xml:space="preserve"
           id="flowRoot4185"
           style="font-size:16px;font-style:normal;font-weight:normal;line-height:125%;letter-spacing:0px;word-spacing:0px;fill:#000000;fill-opacity:1;stroke:none;font-family:Sans"><flowRegion
             id="flowRegion4187"><rect
               id="rect4189"
               width="208"
               height="102"
               x="22"
               y="283"
               style="font-size:16px" /></flowRegion><flowPara
             id="flowPara4191">__________________________</flowPara><flowPara
             id="flowPara4193" /><flowPara
             id="flowPara4195">__________________________</flowPara><flowPara
             id="flowPara4197"></flowPara><flowPara
             id="flowPara4199">__________________________</flowPara><flowPara
             id="flowPara4201" /></flowRoot>      </g>
      <g
         transform="translate(486.02241,361.53666)"
         id="g4203">
        <g
           transform="matrix(0.53611764,0,0,0.53611764,-67.634575,-110.11074)"
           inkscape:label="Layer 1"
           id="g4205">
          <rect
             style="fill:#b3b3b3;stroke:#000000;stroke-width:1.73205078;stroke-miterlimit:4;stroke-opacity:1;stroke-dasharray:none"
             id="rect4207"
             width="180"
             height="80"
             x="260"
             y="-332.36218"
             rx="1.2857143"
             ry="2"
             transform="scale(1,-1)" />
          <rect
             transform="scale(1,-1)"
             ry="2"
             rx="1.2857143"
             y="-692.36218"
             x="260"
             height="80"
             width="180"
             id="rect4209"
             style="fill:#b3b3b3;stroke:#000000;stroke-width:1.73205078;stroke-miterlimit:4;stroke-opacity:1;stroke-dasharray:none" />
          <path
             sodipodi:type="arc"
             style="fill:#4d4d4d;fill-rule:evenodd;stroke:#000000;stroke-width:1px;stroke-linecap:butt;stroke-linejoin:miter;stroke-opacity:1"
             id="path4211"
             sodipodi:cx="360"
             sodipodi:cy="452.36218"
             sodipodi:rx="200"
             sodipodi:ry="200"
             d="m 560,452.36218 c 0,110.45695 -89.54305,200 -200,200 -110.45695,0 -200,-89.54305 -200,-200 0,-110.45695 89.54305,-200 200,-200 110.45695,0 200,89.54305 200,200 z"
             transform="matrix(0.95006154,0,0,0.95006235,7.9655376,42.589904)" />
          <path
             d="m 560,452.36218 c 0,110.45695 -89.54305,200 -200,200 -110.45695,0 -200,-89.54305 -200,-200 0,-110.45695 89.54305,-200 200,-200 110.45695,0 200,89.54305 200,200 z"
             sodipodi:ry="200"
             sodipodi:rx="200"
             sodipodi:cy="452.36218"
             sodipodi:cx="360"
             id="path4213"
             style="fill:#ffffff;fill-rule:evenodd;stroke:#000000;stroke-width:1px;stroke-linecap:butt;stroke-linejoin:miter;stroke-opacity:1"
             sodipodi:type="arc"
             transform="matrix(0.80006235,0,0,0.8000614,62.079079,110.43238)" />
          <path
             style="fill:#b3b3b3;stroke:#000000;stroke-width:1px;stroke-linecap:butt;stroke-linejoin:miter;stroke-opacity:1"
             d="m 537.97969,450.54493 20,0 0,40 -20,0 z"
             id="path4215"
             inkscape:connector-curvature="0" />
        </g>
        <flowRoot
           style="font-size:16px;font-style:normal;font-weight:normal;line-height:125%;letter-spacing:0px;word-spacing:0px;fill:#000000;fill-opacity:1;stroke:none;font-family:Sans"
           id="flowRoot4217"
           xml:space="preserve"><flowRegion
             id="flowRegion4219"><rect
               style="font-size:16px"
               y="283"
               x="22"
               height="102"
               width="208"
               id="rect4221" /></flowRegion><flowPara
             id="flowPara4223">__________________________</flowPara><flowPara
             id="flowPara4225" /><flowPara
             id="flowPara4227">__________________________</flowPara><flowPara
             id="flowPara4229"></flowPara><flowPara
             id="flowPara4231">__________________________</flowPara><flowPara
             id="flowPara4233" /></flowRoot>      </g>
      <g
         id="g4235"
         transform="translate(727.59343,361.53666)">
        <g
           id="g4237"
           inkscape:label="Layer 1"
           transform="matrix(0.53611764,0,0,0.53611764,-67.634575,-110.11074)">
          <rect
             transform="scale(1,-1)"
             ry="2"
             rx="1.2857143"
             y="-332.36218"
             x="260"
             height="80"
             width="180"
             id="rect4239"
             style="fill:#b3b3b3;stroke:#000000;stroke-width:1.73205078;stroke-miterlimit:4;stroke-opacity:1;stroke-dasharray:none" />
          <rect
             style="fill:#b3b3b3;stroke:#000000;stroke-width:1.73205078;stroke-miterlimit:4;stroke-opacity:1;stroke-dasharray:none"
             id="rect4241"
             width="180"
             height="80"
             x="260"
             y="-692.36218"
             rx="1.2857143"
             ry="2"
             transform="scale(1,-1)" />
          <path
             transform="matrix(0.95006154,0,0,0.95006235,7.9655376,42.589904)"
             d="m 560,452.36218 c 0,110.45695 -89.54305,200 -200,200 -110.45695,0 -200,-89.54305 -200,-200 0,-110.45695 89.54305,-200 200,-200 110.45695,0 200,89.54305 200,200 z"
             sodipodi:ry="200"
             sodipodi:rx="200"
             sodipodi:cy="452.36218"
             sodipodi:cx="360"
             id="path4243"
             style="fill:#4d4d4d;fill-rule:evenodd;stroke:#000000;stroke-width:1px;stroke-linecap:butt;stroke-linejoin:miter;stroke-opacity:1"
             sodipodi:type="arc" />
          <path
             transform="matrix(0.80006235,0,0,0.8000614,62.079079,110.43238)"
             sodipodi:type="arc"
             style="fill:#ffffff;fill-rule:evenodd;stroke:#000000;stroke-width:1px;stroke-linecap:butt;stroke-linejoin:miter;stroke-opacity:1"
             id="path4245"
             sodipodi:cx="360"
             sodipodi:cy="452.36218"
             sodipodi:rx="200"
             sodipodi:ry="200"
             d="m 560,452.36218 c 0,110.45695 -89.54305,200 -200,200 -110.45695,0 -200,-89.54305 -200,-200 0,-110.45695 89.54305,-200 200,-200 110.45695,0 200,89.54305 200,200 z" />
          <path
             inkscape:connector-curvature="0"
             id="path4247"
             d="m 537.97969,450.54493 20,0 0,40 -20,0 z"
             style="fill:#b3b3b3;stroke:#000000;stroke-width:1px;stroke-linecap:butt;stroke-linejoin:miter;stroke-opacity:1" />
        </g>
        <flowRoot
           xml:space="preserve"
           id="flowRoot4249"
           style="font-size:16px;font-style:normal;font-weight:normal;line-height:125%;letter-spacing:0px;word-spacing:0px;fill:#000000;fill-opacity:1;stroke:none;font-family:Sans"><flowRegion
             id="flowRegion4251"><rect
               id="rect4253"
               width="208"
               height="102"
               x="22"
               y="283"
               style="font-size:16px" /></flowRegion><flowPara
             id="flowPara4255">__________________________</flowPara><flowPara
             id="flowPara4257" /><flowPara
             id="flowPara4259">__________________________</flowPara><flowPara
             id="flowPara4261"></flowPara><flowPara
             id="flowPara4263">__________________________</flowPara><flowPara
             id="flowPara4265" /></flowRoot>      </g>
    </g>
  </g>
</svg>
